<?xml version="1.0" encoding="utf-8"?>
<!-- Generator: Adobe Illustrator 27.1.1, SVG Export Plug-In . SVG Version: 6.00 Build 0)  -->
<svg version="1.1" id="Layer_1" xmlns="http://www.w3.org/2000/svg" xmlns:xlink="http://www.w3.org/1999/xlink" x="0px" y="0px"
	 viewBox="0 0 200 200" style="enable-background:new 0 0 200 200;" xml:space="preserve">
<style type="text/css">
	.st0{fill:none;stroke:#FFFFFF;stroke-width:8;stroke-miterlimit:10;}
	path{fill:#00A3FF;}
</style>
<g>
	<g>
		<g id="XMLID_00000038400913772205457570000002482164507367392698_">
			<g>
				<path d="M200,100H100l95.1-30.9l0,0C198.3,78.8,200,89.2,200,100z"/>
				<path d="M195.1,130.9L195.1,130.9c-3.2,10.1-8.1,19.5-14.2,27.9l0,0L100,100L195.1,130.9z"/>
				<path d="M180.9,41.2L180.9,41.2L100,100l58.8-80.9l0,0C167.3,25.2,174.7,32.7,180.9,41.2z"/>
				<path d="M158.8,180.9L158.8,180.9c-8.4,6.1-17.8,11-27.9,14.2l0,0L100,100L158.8,180.9z"/>
				<path d="M130.9,4.9L130.9,4.9L100,100V0C110.8,0,121.2,1.7,130.9,4.9z"/>
				<path d="M100,100v100c-10.8,0-21.2-1.7-30.9-4.9l0,0L100,100z"/>
				<path d="M69.1,4.9L100,100L41.2,19.1l0,0C49.6,13,59,8.1,69.1,4.9L69.1,4.9z"/>
				<path d="M100,100l-58.8,80.9l0,0c-8.5-6.2-16-13.6-22.1-22.1l0,0L100,100z"/>
				<path d="M100,100L4.9,130.9l0,0C1.7,121.2,0,110.8,0,100H100z"/>
				<path d="M100,100L4.9,69.1l0,0C8.1,59,13,49.6,19.1,41.2l0,0L100,100z"/>
			</g>
		</g>
	</g>
</g>
</svg>
